<svg width="24" height="24" viewBox="0 0 24 24" fill="none" xmlns="http://www.w3.org/2000/svg">
<path fill-rule="evenodd" clip-rule="evenodd" d="M11.2483 1.95097C11.7392 1.81159 12.2593 1.81159 12.7503 1.95097C13.0669 2.04085 13.338 2.19668 13.6061 2.3868C13.8613 2.56783 14.1519 2.80846 14.4974 3.09446L14.8027 3.34722C15.1051 3.59755 15.1875 3.66219 15.2719 3.70966C15.3588 3.75853 15.4513 3.79683 15.5473 3.82374C15.6406 3.84986 15.7445 3.86243 16.1354 3.89923L16.53 3.9364C16.9765 3.97843 17.3522 4.0138 17.6606 4.06626C17.9846 4.12136 18.2865 4.2029 18.574 4.36322C19.0197 4.61183 19.3874 4.97958 19.636 5.42529C19.7963 5.71272 19.8779 6.01465 19.933 6.33862C19.9855 6.64711 20.0208 7.0228 20.0629 7.46932L20.1 7.86388C20.1368 8.2547 20.1494 8.35869 20.1755 8.45194C20.2024 8.54797 20.2407 8.64043 20.2896 8.72735C20.3371 8.81177 20.4017 8.89419 20.652 9.19656L20.9048 9.50192C21.1908 9.84734 21.4314 10.138 21.6124 10.3932C21.8026 10.6612 21.9584 10.9324 22.0483 11.249C22.1877 11.74 22.1877 12.26 22.0483 12.751C21.9584 13.0676 21.8026 13.3387 21.6124 13.6068C21.4314 13.862 21.1908 14.1526 20.9048 14.4981L20.652 14.8034C20.4017 15.1058 20.3371 15.1882 20.2896 15.2726C20.2407 15.3596 20.2024 15.452 20.1755 15.548C20.1494 15.6413 20.1368 15.7453 20.1 16.1361L20.0629 16.5308C20.0208 16.9772 19.9855 17.3529 19.933 17.6614C19.8779 17.9853 19.7963 18.2873 19.636 18.5747C19.3874 19.0204 19.0197 19.3881 18.574 19.6368C18.2865 19.7971 17.9846 19.8786 17.6606 19.9337C17.3521 19.9862 16.9765 20.0216 16.5299 20.0636L16.1354 20.1007C15.7445 20.1375 15.6406 20.1501 15.5473 20.1762C15.4513 20.2031 15.3588 20.2414 15.2719 20.2903C15.1875 20.3378 15.1051 20.4024 14.8027 20.6528L14.4974 20.9055C14.1519 21.1915 13.8613 21.4322 13.6061 21.6132C13.338 21.8033 13.0669 21.9591 12.7503 22.049C12.2593 22.1884 11.7392 22.1884 11.2483 22.049C10.9317 21.9591 10.6605 21.8033 10.3925 21.6132C10.1372 21.4322 9.84662 21.1915 9.5012 20.9056L9.19583 20.6528C8.89345 20.4024 8.81104 20.3378 8.72662 20.2903C8.6397 20.2414 8.54724 20.2031 8.45121 20.1762C8.35796 20.1501 8.25397 20.1375 7.86315 20.1007L7.46849 20.0636C7.02201 20.0215 6.64635 19.9862 6.33788 19.9337C6.01392 19.8786 5.71199 19.7971 5.42456 19.6368C4.97884 19.3881 4.6111 19.0204 4.36249 18.5747C4.20217 18.2873 4.12063 17.9853 4.06553 17.6614C4.01306 17.3529 3.9777 16.9772 3.93566 16.5308L3.8985 16.1361C3.8617 15.7453 3.84913 15.6413 3.823 15.548C3.7961 15.452 3.7578 15.3596 3.70892 15.2726C3.66146 15.1882 3.59682 15.1058 3.34649 14.8034L3.09369 14.4981C2.80771 14.1526 2.56709 13.862 2.38607 13.6068C2.19595 13.3387 2.04011 13.0676 1.95024 12.751C1.81086 12.26 1.81086 11.74 1.95024 11.249C2.04011 10.9324 2.19595 10.6612 2.38607 10.3932C2.56709 10.138 2.80772 9.84733 3.09371 9.50189L3.34649 9.19656C3.59682 8.89419 3.66146 8.81177 3.70892 8.72735C3.7578 8.64043 3.7961 8.54797 3.823 8.45194C3.84913 8.35869 3.8617 8.2547 3.8985 7.86388L3.93566 7.46924C3.9777 7.02275 4.01306 6.64709 4.06553 6.33862C4.12063 6.01465 4.20217 5.71272 4.36249 5.42529C4.6111 4.97958 4.97884 4.61183 5.42456 4.36322C5.71199 4.2029 6.01392 4.12136 6.33788 4.06626C6.64635 4.0138 7.02201 3.97843 7.46849 3.9364L7.86315 3.89923C8.25397 3.86243 8.35796 3.84986 8.45121 3.82374C8.54724 3.79683 8.6397 3.75853 8.72662 3.70966C8.81104 3.66219 8.89345 3.59755 9.19583 3.34722L9.50117 3.09443C9.84661 2.80844 10.1372 2.56782 10.3925 2.3868C10.6605 2.19668 10.9317 2.04085 11.2483 1.95097ZM12.3406 3.39395C12.1175 3.3306 11.8811 3.3306 11.6579 3.39395C11.5695 3.41903 11.4566 3.47101 11.2603 3.61029C11.0562 3.75504 10.8086 3.95936 10.4369 4.26711L10.1524 4.50265C10.1384 4.51423 10.1246 4.52568 10.1109 4.537C9.86906 4.7374 9.67853 4.89527 9.46179 5.01714C9.27056 5.12467 9.06715 5.20893 8.8559 5.26811C8.61646 5.3352 8.3701 5.35829 8.05737 5.3876C8.03972 5.38925 8.02186 5.39093 8.00377 5.39263L7.63604 5.42726C7.15558 5.4725 6.83605 5.50307 6.58939 5.54502C6.35205 5.58539 6.23546 5.62848 6.15525 5.67322C5.95265 5.78623 5.78549 5.95338 5.67249 6.15598C5.62775 6.23619 5.58466 6.35278 5.54429 6.59012C5.50234 6.83678 5.47177 7.15631 5.42652 7.63678L5.3919 8.00451C5.39019 8.02259 5.38852 8.04045 5.38686 8.0581C5.35756 8.37084 5.33447 8.61719 5.26738 8.85663C5.20819 9.06788 5.12394 9.27129 5.01641 9.46253C4.89454 9.67927 4.73667 9.86979 4.53626 10.1116C4.52495 10.1253 4.5135 10.1391 4.50191 10.1531L4.26638 10.4376C3.95863 10.8094 3.7543 11.0569 3.60955 11.261C3.47027 11.4574 3.4183 11.5703 3.39322 11.6586C3.32986 11.8818 3.32986 12.1182 3.39322 12.3414C3.4183 12.4297 3.47027 12.5426 3.60955 12.739C3.7543 12.9431 3.95863 13.1906 4.26638 13.5624L4.50191 13.8469C4.5135 13.8609 4.52495 13.8747 4.53626 13.8883C4.73667 14.1302 4.89454 14.3207 5.01641 14.5375C5.12394 14.7287 5.20819 14.9321 5.26738 15.1434C5.33447 15.3828 5.35756 15.6291 5.38686 15.9419C5.38852 15.9595 5.39019 15.9774 5.3919 15.9955L5.42652 16.3632C5.47177 16.8437 5.50234 17.1632 5.54429 17.4099C5.58466 17.6472 5.62775 17.7638 5.67249 17.844C5.78549 18.0466 5.95265 18.2138 6.15525 18.3268C6.23546 18.3715 6.35205 18.4146 6.58939 18.455C6.83605 18.4969 7.15558 18.5275 7.63605 18.5727L8.00377 18.6074C8.02186 18.6091 8.03973 18.6107 8.05738 18.6124C8.37011 18.6417 8.61646 18.6648 8.8559 18.7319C9.06715 18.7911 9.27056 18.8753 9.46179 18.9828C9.67853 19.1047 9.86906 19.2626 10.1109 19.463C10.1246 19.4743 10.1384 19.4857 10.1524 19.4973L10.4369 19.7329C10.8086 20.0406 11.0562 20.2449 11.2603 20.3897C11.4566 20.529 11.5695 20.5809 11.6579 20.606C11.8811 20.6694 12.1175 20.6694 12.3406 20.606C12.429 20.5809 12.5419 20.529 12.7383 20.3897C12.9423 20.2449 13.1899 20.0406 13.5616 19.7329L13.8461 19.4973C13.8601 19.4858 13.8739 19.4743 13.8876 19.463C14.1294 19.2626 14.32 19.1047 14.5367 18.9828C14.728 18.8753 14.9314 18.7911 15.1426 18.7319C15.3821 18.6648 15.6284 18.6417 15.9411 18.6124C15.9588 18.6107 15.9767 18.6091 15.9947 18.6074L16.3625 18.5727C16.8429 18.5275 17.1625 18.4969 17.4091 18.455C17.6465 18.4146 17.7631 18.3715 17.8433 18.3268C18.0459 18.2138 18.213 18.0466 18.326 17.844C18.3708 17.7638 18.4139 17.6472 18.4542 17.4099C18.4962 17.1632 18.5268 16.8437 18.572 16.3632L18.6066 15.9955C18.6083 15.9774 18.61 15.9595 18.6117 15.9419C18.641 15.6291 18.6641 15.3828 18.7311 15.1434C18.7903 14.9321 18.8746 14.7287 18.9821 14.5375C19.104 14.3207 19.2618 14.1302 19.4623 13.8883C19.4736 13.8747 19.485 13.8609 19.4966 13.8469L19.7321 13.5624C20.0399 13.1906 20.2442 12.9431 20.389 12.739C20.5282 12.5426 20.5802 12.4297 20.6053 12.3414C20.6686 12.1182 20.6686 11.8818 20.6053 11.6586C20.5802 11.5703 20.5282 11.4574 20.389 11.261C20.2442 11.0569 20.0399 10.8094 19.7321 10.4376L19.4966 10.1531C19.485 10.1391 19.4736 10.1253 19.4623 10.1117C19.2619 9.86981 19.104 9.67928 18.9821 9.46253C18.8746 9.27129 18.7903 9.06788 18.7311 8.85663C18.6641 8.61719 18.641 8.37084 18.6117 8.05812C18.61 8.04046 18.6083 8.02259 18.6066 8.0045L18.572 7.63678C18.5267 7.15631 18.4962 6.83678 18.4542 6.59012C18.4139 6.35278 18.3708 6.23619 18.326 6.15598C18.213 5.95338 18.0459 5.78623 17.8433 5.67322C17.7631 5.62848 17.6465 5.58539 17.4091 5.54502C17.1625 5.50307 16.8429 5.4725 16.3625 5.42726L15.9947 5.39263C15.9767 5.39093 15.9588 5.38925 15.9411 5.3876C15.6284 5.35829 15.3821 5.3352 15.1426 5.26811C14.9314 5.20893 14.728 5.12467 14.5367 5.01714C14.32 4.89527 14.1295 4.7374 13.8876 4.537C13.8739 4.52568 13.8601 4.51423 13.8461 4.50265L13.5616 4.26711C13.1899 3.95936 12.9423 3.75504 12.7383 3.61029C12.5419 3.47101 12.429 3.41903 12.3406 3.39395Z" fill="#EA2C5D"/>
<path fill-rule="evenodd" clip-rule="evenodd" d="M15.5296 9.46966C15.8225 9.76255 15.8225 10.2374 15.5296 10.5303L12.0952 13.9646C12.0905 13.9694 12.0857 13.9741 12.081 13.9789C11.9946 14.0653 11.901 14.159 11.8133 14.2335C11.714 14.3177 11.5742 14.4204 11.3855 14.4817C11.1344 14.5633 10.864 14.5633 10.613 14.4817C10.4242 14.4204 10.2844 14.3177 10.1852 14.2335C10.0975 14.159 10.0039 14.0653 9.91752 13.9789C9.91273 13.9741 9.90796 13.9694 9.90322 13.9646L8.46893 12.5303C8.17603 12.2375 8.17603 11.7626 8.46893 11.4697C8.76182 11.1768 9.23669 11.1768 9.52959 11.4697L10.9639 12.904C10.9763 12.9164 10.9881 12.9282 10.9992 12.9393C11.0104 12.9282 11.0221 12.9164 11.0346 12.904L14.4689 9.46966C14.7618 9.17677 15.2367 9.17677 15.5296 9.46966Z" fill="#EA2C5D"/>
</svg>
